<svg xmlns="http://www.w3.org/2000/svg" width="1400" height="584" viewBox="0 0 1400 584"><style>.label{font:11px sans-serif}.title{font:600 16px sans-serif}.bar{fill:#2855a6}.ci{stroke:#111;stroke-width:1.2}</style><text x="20" y="28" class="title">E5 matched-view frozen-representation accuracy (mean and 95% CI)</text><text x="20" y="67" class="label">cifar10 |  | V= | default | knn</text><rect x="520" y="55" width="685.17" height="15" class="bar"/><line x1="1205.17" y1="62.5" x2="1205.17" y2="62.5" class="ci"/><text x="1210.17" y="67" class="label">0.5564</text><text x="20" y="91" class="label">cifar10 |  | V= | default | linear_probe</text><rect x="520" y="79" width="728.27" height="15" class="bar"/><line x1="1248.27" y1="86.5" x2="1248.27" y2="86.5" class="ci"/><text x="1253.27" y="91" class="label">0.5914</text><text x="20" y="115" class="label">cifar10 |  | V= | default | knn</text><rect x="520" y="103" width="717.43" height="15" class="bar"/><line x1="1237.43" y1="110.5" x2="1237.43" y2="110.5" class="ci"/><text x="1242.43" y="115" class="label">0.5826</text><text x="20" y="139" class="label">cifar10 |  | V= | default | linear_probe</text><rect x="520" y="127" width="650.44" height="15" class="bar"/><line x1="1067.62" y1="134.5" x2="1273.26" y2="134.5" class="ci"/><text x="1175.44" y="139" class="label">0.5282</text><text x="20" y="163" class="label">cifar10 |  | V= | default | knn</text><rect x="520" y="151" width="793.53" height="15" class="bar"/><line x1="1313.53" y1="158.5" x2="1313.53" y2="158.5" class="ci"/><text x="1318.53" y="163" class="label">0.6444</text><text x="20" y="187" class="label">cifar10 |  | V= | default | linear_probe</text><rect x="520" y="175" width="800.00" height="15" class="bar"/><line x1="1276.43" y1="182.5" x2="1363.57" y2="182.5" class="ci"/><text x="1325.00" y="187" class="label">0.6497</text><text x="20" y="211" class="label">cifar10 |  | V= | default | knn</text><rect x="520" y="199" width="785.78" height="15" class="bar"/><line x1="1305.78" y1="206.5" x2="1305.78" y2="206.5" class="ci"/><text x="1310.78" y="211" class="label">0.6381</text><text x="20" y="235" class="label">cifar10 |  | V= | default | linear_probe</text><rect x="520" y="223" width="741.91" height="15" class="bar"/><line x1="1179.71" y1="230.5" x2="1344.12" y2="230.5" class="ci"/><text x="1266.91" y="235" class="label">0.6025</text><text x="20" y="259" class="label">cifar10 | barlow_twins | V= | default | linear_probe</text><rect x="520" y="247" width="679.13" height="15" class="bar"/><line x1="1199.13" y1="254.5" x2="1199.13" y2="254.5" class="ci"/><text x="1204.13" y="259" class="label">0.5515</text><text x="20" y="283" class="label">cifar10 | byol | V= | default | linear_probe</text><rect x="520" y="271" width="449.97" height="15" class="bar"/><line x1="969.97" y1="278.5" x2="969.97" y2="278.5" class="ci"/><text x="974.97" y="283" class="label">0.3654</text><text x="20" y="307" class="label">cifar10 | dino | V= | default | linear_probe</text><rect x="520" y="295" width="541.09" height="15" class="bar"/><line x1="1061.09" y1="302.5" x2="1061.09" y2="302.5" class="ci"/><text x="1066.09" y="307" class="label">0.4394</text><text x="20" y="331" class="label">cifar10 | fastsiam | V= | default | linear_probe</text><rect x="520" y="319" width="431.99" height="15" class="bar"/><line x1="951.99" y1="326.5" x2="951.99" y2="326.5" class="ci"/><text x="956.99" y="331" class="label">0.3508</text><text x="20" y="355" class="label">cifar10 | moco_v2 | V=2 | default | linear_probe</text><rect x="520" y="343" width="663.50" height="15" class="bar"/><line x1="1183.50" y1="350.5" x2="1183.50" y2="350.5" class="ci"/><text x="1188.50" y="355" class="label">0.5388</text><text x="20" y="379" class="label">cifar10 | simclr | V= | default | linear_probe</text><rect x="520" y="367" width="727.04" height="15" class="bar"/><line x1="1247.04" y1="374.5" x2="1247.04" y2="374.5" class="ci"/><text x="1252.04" y="379" class="label">0.5904</text><text x="20" y="403" class="label">cifar10 | spectral_contrastive | V= | default | linear_probe</text><rect x="520" y="391" width="572.99" height="15" class="bar"/><line x1="1092.99" y1="398.5" x2="1092.99" y2="398.5" class="ci"/><text x="1097.99" y="403" class="label">0.4653</text><text x="20" y="427" class="label">cifar10 | vicreg | V= | default | linear_probe</text><rect x="520" y="415" width="668.54" height="15" class="bar"/><line x1="1188.54" y1="422.5" x2="1188.54" y2="422.5" class="ci"/><text x="1193.54" y="427" class="label">0.5429</text><text x="20" y="451" class="label">cifar100 |  | V= | default | knn</text><rect x="520" y="439" width="324.48" height="15" class="bar"/><line x1="746.97" y1="446.5" x2="941.99" y2="446.5" class="ci"/><text x="849.48" y="451" class="label">0.2635</text><text x="20" y="475" class="label">cifar100 |  | V= | default | linear_probe</text><rect x="520" y="463" width="343.40" height="15" class="bar"/><line x1="758.08" y1="470.5" x2="968.71" y2="470.5" class="ci"/><text x="868.40" y="475" class="label">0.2789</text><text x="20" y="499" class="label">imagenet100 |  | V= | default | linear_probe</text><rect x="520" y="487" width="21.85" height="15" class="bar"/><line x1="537.69" y1="494.5" x2="546.00" y2="494.5" class="ci"/><text x="546.85" y="499" class="label">0.0177</text><text x="20" y="523" class="label">imagenet1k |  | V= | default | knn</text><rect x="520" y="511" width="3.57" height="15" class="bar"/><line x1="523.57" y1="518.5" x2="523.57" y2="518.5" class="ci"/><text x="528.57" y="523" class="label">0.0029</text><text x="20" y="547" class="label">imagenet1k |  | V= | default | linear_probe</text><rect x="520" y="535" width="1.80" height="15" class="bar"/><line x1="521.80" y1="542.5" x2="521.80" y2="542.5" class="ci"/><text x="526.80" y="547" class="label">0.0015</text></svg>